<?xml version="1.0" encoding="UTF-8"?>
<!DOCTYPE svg PUBLIC "-//W3C//DTD SVG 1.1//EN" "http://www.w3.org/Graphics/SVG/1.1/DTD/svg11.dtd">
<!-- Creator: CorelDRAW X6 -->
<svg xmlns="http://www.w3.org/2000/svg" xml:space="preserve" width="2000px" height="431px" version="1.1" style="shape-rendering:geometricPrecision; text-rendering:geometricPrecision; image-rendering:optimizeQuality; fill-rule:evenodd; clip-rule:evenodd"
viewBox="0 0 2033 438"
 xmlns:xlink="http://www.w3.org/1999/xlink">
 <defs>
  <style type="text/css">
   <![CDATA[
    .fil1 {fill:#3BBBBC}
    .fil0 {fill:white}
   ]]>
  </style>
 </defs>
 <g id="Слой_x0020_1">
  <metadata id="CorelCorpID_0Corel-Layer"/>
  <path class="fil0" d="M462 123l24 42c0,0 12,-12 26,-17 13,-5 33,-6 47,0 14,6 27,37 9,66 -17,29 -55,63 -70,76 -15,13 -36,31 -36,31l0 44 180 0 0 -54 -93 0c0,0 43,-40 62,-62 18,-21 32,-45 31,-74 0,-29 -11,-50 -29,-65 -18,-14 -52,-26 -92,-17 -39,8 -59,30 -59,30zm1194 -35l56 0 0 108c0,0 12,-20 36,-24 24,-5 45,1 59,13 14,11 24,31 24,52 -1,22 -1,128 -1,128l-58 0c0,0 0,-110 0,-123 0,-13 -13,-25 -29,-25 -16,0 -30,21 -30,21l0 127 -57 0 0 -277zm-34 88l-8 43c0,0 -14,-4 -29,-3 -15,0 -34,1 -46,16 -12,16 -11,42 -7,54 3,13 13,27 36,33 23,6 46,1 46,1l9 37c0,0 -21,8 -54,8 -32,0 -60,-6 -80,-30 -19,-24 -22,-65 -17,-92 5,-28 18,-48 44,-61 25,-13 58,-13 78,-11 19,2 28,5 28,5zm-270 -41l57 -15 0 55 40 0 0 42 -40 0c0,0 -1,56 0,78 0,23 22,25 30,25 7,0 12,-2 12,-2l0 38c0,0 -11,9 -36,9 -24,0 -38,-12 -47,-22 -9,-11 -16,-23 -16,-49 0,-25 0,-76 0,-76l-26 0 0 -46 26 0 0 -37zm-235 303l56 0 0 -91c0,0 26,18 59,18 33,-1 53,-24 64,-43 10,-18 19,-72 4,-107 -15,-34 -44,-46 -70,-45 -26,1 -41,9 -50,16 -9,7 -14,14 -14,14l0 -25 -49 0 0 263zm94 -221c22,0 38,22 37,50 -1,29 -16,53 -38,53 -22,0 -38,-20 -37,-51 1,-31 17,-51 38,-52zm678 8l-14 -37c0,0 23,-18 68,-17 45,0 63,11 75,26 12,14 14,27 13,41 0,13 0,87 0,100 0,13 2,27 2,27l-50 0 -2 -23c0,0 -21,23 -54,23 -32,0 -54,-17 -62,-40 -7,-23 0,-51 23,-68 22,-17 51,-18 66,-20 16,-1 23,0 23,0 0,0 -3,-26 -37,-26 -34,-1 -51,14 -51,14zm88 48c0,0 0,27 -8,39 -8,13 -26,17 -37,9 -11,-7 -11,-22 -6,-32 5,-10 17,-15 27,-16 10,-1 24,0 24,0zm-1049 -48l-14 -37c0,0 24,-18 69,-17 44,0 62,11 74,26 12,14 14,27 14,41 -1,13 -1,87 -1,100 0,13 2,27 2,27l-49 0 -3 -23c0,0 -21,23 -54,23 -32,0 -54,-17 -61,-40 -7,-23 0,-51 22,-68 22,-17 51,-18 67,-20 15,-1 22,0 22,0 0,0 -3,-26 -37,-26 -34,-1 -51,14 -51,14zm88 48c0,0 0,27 -7,39 -8,13 -26,17 -38,9 -11,-7 -11,-22 -6,-32 5,-10 18,-15 27,-16 10,-1 24,0 24,0zm-130 -162l-15 45c0,0 -36,-8 -69,-1 -32,8 -58,36 -58,79 1,42 20,64 48,74 28,11 77,1 77,1l15 47c0,0 -31,9 -68,9 -36,-1 -75,-12 -103,-41 -27,-28 -32,-62 -32,-90 0,-28 8,-66 38,-93 30,-27 68,-40 106,-41 38,-1 61,11 61,11z"/>
  <path class="fil1" d="M148 137c82,0 149,67 149,149 0,81 -67,148 -149,148 -82,0 -148,-67 -148,-148 0,-82 66,-149 148,-149zm-111 25c0,0 9,-8 17,-14 8,-6 17,-11 17,-11 0,0 1,-72 0,-83 0,-10 9,-19 20,-19 12,0 105,0 114,0 10,0 20,9 20,21 0,12 0,32 0,32l35 1c0,0 0,-13 0,-35 0,-23 -19,-54 -55,-54 -37,0 -72,0 -110,0 -39,0 -59,29 -59,55 0,27 1,107 1,107zm111 35c49,0 89,40 89,89 0,48 -40,88 -89,88 -48,0 -88,-40 -88,-88 0,-49 40,-89 88,-89zm0 39c17,0 31,13 31,30 0,10 -6,20 -13,25l0 44 -35 0 0 -44c-8,-5 -13,-15 -13,-25 0,-17 14,-30 30,-30zm0 -64c63,0 114,51 114,114 0,62 -51,113 -114,113 -63,0 -114,-51 -114,-113 0,-63 51,-114 114,-114z"/>
 </g>
</svg>
